<svg viewBox="0 0 24 16" xmlns="http://www.w3.org/2000/svg" shape-rendering="crispEdges"><rect x="17" y="0" width="1" height="1" fill="#7832a0"/><rect x="18" y="0" width="1" height="1" fill="#7832a0"/><rect x="21" y="0" width="1" height="1" fill="#7832a0"/><rect x="22" y="0" width="1" height="1" fill="#7832a0"/><rect x="16" y="1" width="1" height="1" fill="#7832a0"/><rect x="17" y="1" width="1" height="1" fill="#a050c8"/><rect x="18" y="1" width="1" height="1" fill="#ff96b4"/><rect x="19" y="1" width="1" height="1" fill="#7832a0"/><rect x="20" y="1" width="1" height="1" fill="#7832a0"/><rect x="21" y="1" width="1" height="1" fill="#ff96b4"/><rect x="22" y="1" width="1" height="1" fill="#a050c8"/><rect x="23" y="1" width="1" height="1" fill="#7832a0"/><rect x="15" y="2" width="1" height="1" fill="#7832a0"/><rect x="16" y="2" width="1" height="1" fill="#a050c8"/><rect x="17" y="2" width="1" height="1" fill="#a050c8"/><rect x="18" y="2" width="1" height="1" fill="#a050c8"/><rect x="19" y="2" width="1" height="1" fill="#a050c8"/><rect x="20" y="2" width="1" height="1" fill="#a050c8"/><rect x="21" y="2" width="1" height="1" fill="#a050c8"/><rect x="22" y="2" width="1" height="1" fill="#a050c8"/><rect x="23" y="2" width="1" height="1" fill="#7832a0"/><rect x="14" y="3" width="1" height="1" fill="#7832a0"/><rect x="15" y="3" width="1" height="1" fill="#a050c8"/><rect x="16" y="3" width="1" height="1" fill="#a050c8"/><rect x="17" y="3" width="1" height="1" fill="#a050c8"/><rect x="18" y="3" width="1" height="1" fill="#a050c8"/><rect x="19" y="3" width="1" height="1" fill="#a050c8"/><rect x="20" y="3" width="1" height="1" fill="#a050c8"/><rect x="21" y="3" width="1" height="1" fill="#a050c8"/><rect x="22" y="3" width="1" height="1" fill="#a050c8"/><rect x="23" y="3" width="1" height="1" fill="#7832a0"/><rect x="14" y="4" width="1" height="1" fill="#7832a0"/><rect x="15" y="4" width="1" height="1" fill="#a050c8"/><rect x="16" y="4" width="1" height="1" fill="#a050c8"/><rect x="17" y="4" width="1" height="1" fill="#ffffff"/><rect x="18" y="4" width="1" height="1" fill="#ffffff"/><rect x="19" y="4" width="1" height="1" fill="#a050c8"/><rect x="20" y="4" width="1" height="1" fill="#a050c8"/><rect x="21" y="4" width="1" height="1" fill="#a050c8"/><rect x="22" y="4" width="1" height="1" fill="#a050c8"/><rect x="23" y="4" width="1" height="1" fill="#7832a0"/><rect x="13" y="5" width="1" height="1" fill="#7832a0"/><rect x="14" y="5" width="1" height="1" fill="#a050c8"/><rect x="15" y="5" width="1" height="1" fill="#a050c8"/><rect x="16" y="5" width="1" height="1" fill="#a050c8"/><rect x="17" y="5" width="1" height="1" fill="#28143c"/><rect x="18" y="5" width="1" height="1" fill="#ffffff"/><rect x="19" y="5" width="1" height="1" fill="#a050c8"/><rect x="20" y="5" width="1" height="1" fill="#dcb4f0"/><rect x="21" y="5" width="1" height="1" fill="#ff96b4"/><rect x="22" y="5" width="1" height="1" fill="#a050c8"/><rect x="23" y="5" width="1" height="1" fill="#7832a0"/><rect x="13" y="6" width="1" height="1" fill="#7832a0"/><rect x="14" y="6" width="1" height="1" fill="#a050c8"/><rect x="15" y="6" width="1" height="1" fill="#a050c8"/><rect x="16" y="6" width="1" height="1" fill="#a050c8"/><rect x="17" y="6" width="1" height="1" fill="#a050c8"/><rect x="18" y="6" width="1" height="1" fill="#dcb4f0"/><rect x="19" y="6" width="1" height="1" fill="#dcb4f0"/><rect x="20" y="6" width="1" height="1" fill="#dcb4f0"/><rect x="21" y="6" width="1" height="1" fill="#a050c8"/><rect x="22" y="6" width="1" height="1" fill="#7832a0"/><rect x="14" y="7" width="1" height="1" fill="#7832a0"/><rect x="15" y="7" width="1" height="1" fill="#7832a0"/><rect x="16" y="7" width="1" height="1" fill="#a050c8"/><rect x="17" y="7" width="1" height="1" fill="#a050c8"/><rect x="18" y="7" width="1" height="1" fill="#dcb4f0"/><rect x="19" y="7" width="1" height="1" fill="#dcb4f0"/><rect x="20" y="7" width="1" height="1" fill="#7832a0"/><rect x="21" y="7" width="1" height="1" fill="#7832a0"/><rect x="8" y="8" width="1" height="1" fill="#7832a0"/><rect x="9" y="8" width="1" height="1" fill="#7832a0"/><rect x="10" y="8" width="1" height="1" fill="#7832a0"/><rect x="11" y="8" width="1" height="1" fill="#7832a0"/><rect x="12" y="8" width="1" height="1" fill="#7832a0"/><rect x="13" y="8" width="1" height="1" fill="#7832a0"/><rect x="14" y="8" width="1" height="1" fill="#a050c8"/><rect x="15" y="8" width="1" height="1" fill="#a050c8"/><rect x="16" y="8" width="1" height="1" fill="#a050c8"/><rect x="17" y="8" width="1" height="1" fill="#a050c8"/><rect x="18" y="8" width="1" height="1" fill="#a050c8"/><rect x="19" y="8" width="1" height="1" fill="#a050c8"/><rect x="20" y="8" width="1" height="1" fill="#7832a0"/><rect x="6" y="9" width="1" height="1" fill="#7832a0"/><rect x="7" y="9" width="1" height="1" fill="#7832a0"/><rect x="8" y="9" width="1" height="1" fill="#a050c8"/><rect x="9" y="9" width="1" height="1" fill="#a050c8"/><rect x="10" y="9" width="1" height="1" fill="#7832a0"/><rect x="11" y="9" width="1" height="1" fill="#a050c8"/><rect x="12" y="9" width="1" height="1" fill="#a050c8"/><rect x="13" y="9" width="1" height="1" fill="#a050c8"/><rect x="14" y="9" width="1" height="1" fill="#c864dc"/><rect x="15" y="9" width="1" height="1" fill="#a050c8"/><rect x="16" y="9" width="1" height="1" fill="#a050c8"/><rect x="17" y="9" width="1" height="1" fill="#a050c8"/><rect x="18" y="9" width="1" height="1" fill="#a050c8"/><rect x="19" y="9" width="1" height="1" fill="#7832a0"/><rect x="5" y="10" width="1" height="1" fill="#7832a0"/><rect x="6" y="10" width="1" height="1" fill="#a050c8"/><rect x="7" y="10" width="1" height="1" fill="#a050c8"/><rect x="8" y="10" width="1" height="1" fill="#a050c8"/><rect x="9" y="10" width="1" height="1" fill="#a050c8"/><rect x="10" y="10" width="1" height="1" fill="#a050c8"/><rect x="11" y="10" width="1" height="1" fill="#a050c8"/><rect x="12" y="10" width="1" height="1" fill="#dcb4f0"/><rect x="13" y="10" width="1" height="1" fill="#dcb4f0"/><rect x="14" y="10" width="1" height="1" fill="#dcb4f0"/><rect x="15" y="10" width="1" height="1" fill="#dcb4f0"/><rect x="16" y="10" width="1" height="1" fill="#a050c8"/><rect x="17" y="10" width="1" height="1" fill="#a050c8"/><rect x="18" y="10" width="1" height="1" fill="#7832a0"/><rect x="2" y="11" width="1" height="1" fill="#7832a0"/><rect x="3" y="11" width="1" height="1" fill="#7832a0"/><rect x="4" y="11" width="1" height="1" fill="#7832a0"/><rect x="5" y="11" width="1" height="1" fill="#a050c8"/><rect x="6" y="11" width="1" height="1" fill="#a050c8"/><rect x="7" y="11" width="1" height="1" fill="#a050c8"/><rect x="8" y="11" width="1" height="1" fill="#7832a0"/><rect x="9" y="11" width="1" height="1" fill="#a050c8"/><rect x="10" y="11" width="1" height="1" fill="#a050c8"/><rect x="11" y="11" width="1" height="1" fill="#dcb4f0"/><rect x="12" y="11" width="1" height="1" fill="#dcb4f0"/><rect x="13" y="11" width="1" height="1" fill="#dcb4f0"/><rect x="14" y="11" width="1" height="1" fill="#dcb4f0"/><rect x="15" y="11" width="1" height="1" fill="#a050c8"/><rect x="16" y="11" width="1" height="1" fill="#a050c8"/><rect x="17" y="11" width="1" height="1" fill="#7832a0"/><rect x="0" y="12" width="1" height="1" fill="#7832a0"/><rect x="1" y="12" width="1" height="1" fill="#7832a0"/><rect x="2" y="12" width="1" height="1" fill="#a050c8"/><rect x="5" y="12" width="1" height="1" fill="#7832a0"/><rect x="6" y="12" width="1" height="1" fill="#7832a0"/><rect x="7" y="12" width="1" height="1" fill="#a050c8"/><rect x="8" y="12" width="1" height="1" fill="#a050c8"/><rect x="9" y="12" width="1" height="1" fill="#a050c8"/><rect x="10" y="12" width="1" height="1" fill="#a050c8"/><rect x="11" y="12" width="1" height="1" fill="#a050c8"/><rect x="12" y="12" width="1" height="1" fill="#a050c8"/><rect x="13" y="12" width="1" height="1" fill="#a050c8"/><rect x="14" y="12" width="1" height="1" fill="#a050c8"/><rect x="15" y="12" width="1" height="1" fill="#a050c8"/><rect x="16" y="12" width="1" height="1" fill="#7832a0"/><rect x="0" y="13" width="1" height="1" fill="#7832a0"/><rect x="1" y="13" width="1" height="1" fill="#7832a0"/><rect x="4" y="13" width="1" height="1" fill="#7832a0"/><rect x="5" y="13" width="1" height="1" fill="#a050c8"/><rect x="6" y="13" width="1" height="1" fill="#7832a0"/><rect x="14" y="13" width="1" height="1" fill="#7832a0"/><rect x="15" y="13" width="1" height="1" fill="#7832a0"/><rect x="16" y="13" width="1" height="1" fill="#a050c8"/><rect x="17" y="13" width="1" height="1" fill="#7832a0"/><rect x="4" y="14" width="1" height="1" fill="#7832a0"/><rect x="5" y="14" width="1" height="1" fill="#ffffff"/><rect x="6" y="14" width="1" height="1" fill="#7832a0"/><rect x="15" y="14" width="1" height="1" fill="#7832a0"/><rect x="16" y="14" width="1" height="1" fill="#ffffff"/><rect x="17" y="14" width="1" height="1" fill="#7832a0"/><rect x="4" y="15" width="1" height="1" fill="#7832a0"/><rect x="5" y="15" width="1" height="1" fill="#7832a0"/><rect x="15" y="15" width="1" height="1" fill="#7832a0"/><rect x="16" y="15" width="1" height="1" fill="#7832a0"/></svg>